<svg width="300" height="437" viewBox="0 0 300 437" fill="none" xmlns="http://www.w3.org/2000/svg">
    <path d="M88.9092 149.003C88.7464 149.023 88.5893 148.996 88.4124 148.947C88.4567 148.947 88.6337 148.967 88.9092 149.003C89.6571 148.914 90.5245 147.843 93.9794 143.392C96.5309 140.104 99.7319 136.132 101.093 134.563C102.454 132.995 105.344 129.557 107.516 126.925C112.47 120.92 113.558 120.751 117.226 125.422C118.614 127.19 120.516 129.798 121.451 131.218C124.312 135.563 122.63 138.729 119.166 135.517C118.263 134.679 116.984 133.822 116.323 133.612C115.662 133.403 114.672 132.545 114.124 131.707C112.669 129.486 110.627 129.755 108.472 132.452C107.475 133.7 105.201 136.555 103.417 138.797C103.017 139.3 100.014 143.873 98.5631 146.097C97.6768 147.87 96.5613 149.645 96.0841 150.042C94.0481 149.738 90.2727 149.182 88.9092 149.003Z" fill="#E51717"/>
    <path fill-rule="evenodd" clip-rule="evenodd" d="M261.192 432.475C261.738 433.021 263.247 433.643 264.546 433.858C267.687 434.378 272.002 433.765 274.512 432.443C276.248 431.528 280.866 427.231 283.583 424.001C285.112 422.185 285.773 420.335 285.773 417.874C285.773 416.018 286.225 414.858 287.539 413.346C289.062 411.591 289.354 410.633 289.672 406.36C290.059 401.14 289.359 394.199 287.924 389.029C287.451 387.327 286.615 382.452 286.066 378.197C285.518 373.941 284.669 369.579 284.18 368.502C283.692 367.426 283.126 364.362 282.922 361.693C282.537 356.652 281.674 352.448 279.515 345.081C276.643 335.284 275.608 332.45 273.006 327.253C267.964 317.187 265.918 303.172 267.837 291.849C268.183 289.806 268.444 281.524 268.418 273.443C268.392 265.362 268.544 258.468 268.758 258.123C268.971 257.778 269.691 257.496 270.359 257.496C271.809 257.496 272.356 256.321 274.006 249.655C274.994 245.664 275.259 242.539 275.266 234.8C275.271 229.41 275.438 224.39 275.637 223.646C275.907 222.639 277.609 221.591 282.278 219.558C285.731 218.054 289.252 216.648 290.103 216.434C290.953 216.219 293.177 214.683 295.044 213.02C298.234 210.178 298.402 209.887 297.816 208.213C297.359 206.904 296.727 206.376 295.437 206.228C293.048 205.952 290.734 207 284.44 211.208C281.496 213.176 278.782 214.786 278.409 214.786C278.229 214.786 278.078 214.792 277.969 214.726C277.407 214.386 277.991 212.148 281.763 197.455C282.593 194.221 283.701 189.485 284.225 186.932C284.749 184.379 285.615 180.758 286.149 178.885C288.423 170.916 288.454 170.725 287.776 168.747C287.412 167.685 286.925 163.751 286.694 160.006C286.374 154.828 285.944 152.531 284.897 150.412C282.627 145.818 279.921 136.784 279.242 131.533C278.903 128.909 276.559 120.341 273.907 112.035C272.76 108.442 270.414 105.272 267.358 103.182C265.766 102.094 262.363 99.2278 259.796 96.8132C257.229 94.3987 254.523 92.0989 253.782 91.7024C253.042 91.306 251.68 89.296 250.757 87.2358C249.627 84.7171 248.502 83.1924 247.322 82.5818C244.018 80.8723 244.714 77.2691 249.6 70.7869C253.882 65.1055 255.999 60.3452 256.54 55.1782L256.887 51.8627L259.114 52.2376C264.951 53.2206 267.835 53.381 267.835 52.7227C267.835 51.5101 265.35 49.6811 260.584 47.3853L255.917 45.1376L256.36 37.8886C256.603 33.9016 257.061 28.5505 257.376 25.9972C258.638 15.7831 259.098 10.1469 258.774 8.84268C258.694 8.51991 258.709 8.28344 258.636 8.07905C258.332 7.23259 256.499 6.93638 240 3.33981C237.18 2.72513 231.076 2.20644 224.436 2.01725L213.512 1.70599L212.548 3.57111C212.018 4.59693 211.302 8.40911 210.958 12.0426C210.614 15.6762 210.205 18.8553 210.05 19.1074C209.894 19.3595 209.325 22.893 208.786 26.9596C207.794 34.4358 207.59 36.3164 206.554 37.108C206.155 37.4126 205.634 37.556 204.897 37.7948C203.621 38.2085 200.984 39.3443 199.038 40.3188C197.092 41.2933 195.104 42.0907 194.622 42.0907C194.14 42.0907 193.088 42.6298 192.285 43.2887C190.913 44.4138 190.888 44.5514 191.868 45.5485C192.787 46.4842 193.332 46.5256 196.455 45.8979C198.405 45.5061 201.091 45.1856 202.425 45.1856H204.851L204.444 47.598C204.194 49.0795 204.292 50.1684 204.699 50.4199C205.737 51.0623 205.475 53.0753 204.195 54.2914C202.524 55.8781 200.417 59.5382 200.415 60.859C200.413 61.4791 200.85 62.4242 201.384 62.9592C202.268 63.8434 202.268 64.0207 201.379 64.9098C200.488 65.8011 200.215 65.7871 198.295 64.7523C195.857 63.4384 194.821 63.789 195.295 65.7673C195.687 67.3988 199.085 71.1827 200.158 71.1827C201.554 71.1827 201.716 73.1988 200.43 74.5685C199.74 75.3035 199.166 76.3047 199.156 76.7935C199.145 77.2822 198.727 78.2227 198.228 78.8836C197.728 79.5444 197.32 80.9391 197.32 81.9829V83.8807L204.358 83.6571C212.214 83.4075 215.394 84.3014 216.677 87.1198C218.066 90.1703 214.368 94.5899 204.308 101.901C201.648 103.835 195.464 111.027 195.464 112.187C195.464 112.525 194.629 113.752 193.608 114.915C192.588 116.079 191.753 117.384 191.753 117.816C191.753 118.248 190.907 119.936 189.874 121.566C188.841 123.196 187.611 125.967 187.142 127.722C186.672 129.478 185.847 132.133 185.309 133.623C184.77 135.112 184.33 136.84 184.33 137.463C184.33 138.085 183.607 139.094 182.722 139.706C181.838 140.318 180.099 141.685 178.856 142.745C175.879 145.286 173.771 146.322 166.546 148.793C163.229 149.928 158.619 151.721 156.301 152.779C153.983 153.837 150.364 155.173 148.26 155.747C146.155 156.322 143.946 157.21 143.351 157.721C142.386 158.55 142.15 158.544 141.186 157.671C139.497 156.141 134.33 154.124 132.165 154.148C131.088 154.16 129.51 154.556 128.66 155.029C127.294 155.787 126.891 155.75 125.209 154.712C123.576 153.705 122.804 153.619 119.788 154.11C117.853 154.425 115.976 154.865 115.615 155.088C115.255 155.311 114.354 154.937 113.614 154.256C112.874 153.575 111.155 152.873 109.794 152.696C99.7155 152.63 88.6867 146.355 84.4321 143.226C84.0914 142.175 83.5118 140.925 83.144 140.448C82.7763 139.971 82.1109 138.605 81.6653 137.414C81.2198 136.222 80.2389 134.272 79.4856 133.081C78.7322 131.889 77.7827 129.243 77.3755 127.2C75.5595 118.092 73.4262 113.394 68.2096 107.015C62.9593 100.594 60 96.3546 60 95.2528C60 94.6852 60.978 92.2405 62.1734 89.82L64.3469 85.4192L67.8951 85.3843C69.8466 85.3651 72.4175 85.0131 73.6082 84.6021C75.9488 83.7942 76.0791 83.2621 75.1285 78.3928C74.7149 76.2739 74.7912 76.0333 75.8148 76.2306C76.4898 76.3607 77.2045 77.2833 77.5418 78.46C77.8582 79.5641 78.4512 80.4674 78.8596 80.4674C79.9254 80.4674 81.5261 78.5304 82.3028 76.3007C83.0539 74.1449 81.9268 71.127 79.9593 70.0251C78.9872 69.4808 79.0442 69.2798 80.5719 67.863C82.4892 66.0849 82.3876 65.401 79.6255 61.4885C77.9804 59.1582 77.8483 58.6124 78.2398 55.7636C78.4778 54.0317 78.8609 52.4982 79.091 52.3559C79.3212 52.2136 81.5597 52.5193 84.0656 53.0352C87.4587 53.7339 88.995 53.8031 90.0841 53.3066C90.8884 52.9399 91.5464 52.3929 91.5464 52.0911C91.5464 50.5084 88.7896 48.412 84.9593 47.082C82.6286 46.2727 80.6311 45.5403 80.5204 45.4545C80.4097 45.3688 80.1845 44.0894 80.02 42.6114C79.3041 36.1826 74.1764 29.3675 68.7031 27.5704C63.895 25.9917 54.7271 25.6697 49.2576 26.8874C45.0902 27.8152 44.1283 28.3047 41.49 30.8404C37.7991 34.3877 36.4956 36.8836 36.0433 41.2693C35.6694 44.8943 34.5545 46.1787 29.6907 48.5875C27.0776 49.8817 24.1237 52.5525 24.1237 53.6211C24.1237 55.0104 25.2765 55.1622 28.5162 54.1995C30.2668 53.6793 31.9346 53.3993 32.2225 53.5773C32.5103 53.7554 32.7314 55.3522 32.7136 57.1258C32.662 62.2971 32.9868 63.5634 34.8692 65.5293C36.8193 67.566 37.6346 70.3889 38.2541 77.2492L38.6622 81.7682L36.1138 84.6833C34.7122 86.2867 33.3681 88.4977 33.1269 89.5967C32.8857 90.6957 32.4257 91.7573 32.1047 91.9558C31.314 92.4448 27.2165 101.154 27.2165 102.345C27.2165 102.868 26.9751 103.446 26.6801 103.628C26.1541 103.954 24.565 108.681 22.5016 116.059C20.9771 121.509 21.1538 137.519 22.8299 145.802C23.8495 150.84 24.0472 153.928 23.9176 162.792C23.8305 168.749 23.4196 175.886 23.0045 178.65C22.5893 181.414 22.1169 185.314 21.9546 187.316C21.7923 189.317 21.3745 193.044 21.0262 195.598C20.2941 200.965 19.8926 208.681 19.7584 219.967C19.6554 228.624 20.1818 230.275 23.5652 231.905C24.3827 232.299 26.4433 233.274 28.1443 234.072L31.2371 235.522L31.4253 241.402C31.5287 244.636 31.1891 250.625 30.6705 254.71C30.1519 258.796 29.7343 264.506 29.7425 267.399C29.7507 270.293 29.6186 275.864 29.4489 279.779C29.2792 283.694 29.1261 287.733 29.1087 288.754C29.0801 290.436 28.3379 294.992 26.5375 304.538C26.1843 306.411 24.8303 310.728 23.5285 314.132C22.2268 317.537 20.9874 321.854 20.7743 323.727C20.4259 326.788 18.9407 332.598 17.2139 337.654C16.8651 338.675 16.3636 340.486 16.0994 341.677C14.8643 347.248 12.2194 357.993 10.8428 363.032C10.0059 366.096 9.31145 369.495 9.2997 370.585C9.28795 371.676 9.02886 373.208 8.72395 373.99C8.41903 374.772 7.84159 377.361 7.44074 379.744C5.24102 392.822 2.99166 404.158 1.83041 408.02C1.55599 408.932 1.47658 410.6 1.65394 411.726C2.25685 415.554 3.42822 416.936 7.30042 418.385C9.91901 419.365 11.8886 420.712 14.2878 423.164C19.2831 428.268 25.3487 430.954 33.5771 431.704C38.6516 432.167 42.0618 430.944 42.0618 428.66C42.0618 426.833 37.5393 421.738 34.7371 420.408C33.5209 419.831 31.734 418.245 30.7662 416.883L29.0067 414.407L29.3512 405.432C29.6781 396.914 31.5077 384.458 33.6246 376.34C34.1128 374.468 34.9813 370.846 35.5546 368.293C36.1278 365.74 37.7102 360.308 39.071 356.223C42.2931 346.55 42.743 345.391 43.2766 345.391C43.522 345.391 43.7528 353.12 43.7895 362.568C43.8262 372.015 44.1607 381.973 44.5328 384.696C44.9049 387.42 45.4627 391.737 45.7723 394.29C47.2951 406.851 48.2434 410.047 50.9796 411.841C52.9426 413.128 55.0533 413.134 57.7218 411.861C59.6486 410.941 60.1653 410.941 64.2051 411.861C69.2966 413.02 86.1062 413.247 89.8453 412.208C91.6399 411.71 92.1649 411.251 92.1649 410.183C92.1649 406.999 87.478 403.652 82.8866 403.557C81.6958 403.533 78.7732 402.889 76.3917 402.127L72.0618 400.741L71.0296 396.742C70.4618 394.543 69.6783 391.489 69.2883 389.957C67.5811 383.251 66.1923 350.241 67.3482 343.843C68.9135 335.18 69.8333 322.252 70.1226 304.848C70.403 287.98 70.6357 283.785 71.3292 283.091C71.4579 282.962 73.7553 283.375 76.4345 284.007C79.8263 284.808 81.9685 285.003 83.4879 284.649C84.6881 284.37 86.6866 284.135 87.9291 284.127C89.8628 284.114 90.2788 283.852 90.8169 282.307C91.4043 280.621 91.6122 280.525 93.9753 280.842C97.0794 281.258 101.73 279.623 103.013 277.664C103.16 277.439 103.286 277.272 103.394 277.093C104.086 275.951 104.036 274.36 104.032 254.401C104.03 244.017 104.048 233.015 104.073 229.951C104.131 222.565 102.856 192.622 102.007 181.448C101.566 175.637 101.542 172.349 101.939 171.952C102.903 170.987 114.546 171.18 115.335 172.175C117.469 174.865 123.701 177.647 127.59 177.647C130.719 177.647 139.386 176.052 141.023 175.175C142.736 174.258 145.756 174.417 146.819 175.481C147.329 175.992 148.145 176.409 148.632 176.409C149.119 176.409 150.579 177.13 151.877 178.011C153.892 179.379 154.647 179.553 157.066 179.204C160.468 178.712 163.656 177.678 170.463 174.858C173.451 173.621 177.257 172.567 179.613 172.326C181.444 172.138 182.485 171.886 183.14 172.279C184.17 172.896 184.245 175.108 184.936 181.671C185.741 189.319 187.913 199.228 189.879 204.218C191.153 207.454 191.186 208.345 191.107 237.935C191.063 254.651 190.884 268.945 190.709 269.698C190.535 270.452 189.885 271.23 189.264 271.427C188.643 271.625 187.07 272.515 185.768 273.407C184.467 274.298 179.923 277.019 175.67 279.454C162.485 287.003 155.859 291.139 153.107 293.538C151.65 294.808 149.799 296.098 148.992 296.405C146.268 297.444 138.479 303.986 138.683 305.064C138.994 306.705 141.867 306.651 143.883 304.968C144.866 304.146 146.644 302.979 147.835 302.373C150.338 301.1 157.24 296.881 166.082 291.22C169.485 289.043 173.381 286.652 174.742 285.909C176.933 284.712 178.875 283.415 186.42 278.112C190.274 275.404 190.291 275.443 190.754 288.29C191.022 295.707 190.943 300.676 190.535 302.058C189.654 305.043 189.701 316.724 190.596 317.277C191.108 317.594 191.188 325.358 190.897 346.367C190.495 375.432 190.295 378.152 187.665 390.267C187.148 392.65 186.489 396.361 186.2 398.514C185.891 400.823 185.209 402.945 184.539 403.687C182.832 405.575 179.437 407.112 175.324 407.859C169.442 408.926 167.527 409.631 165.665 411.416C163.433 413.556 163.46 414.84 165.776 416.791C168.399 418.999 171.867 419.341 184.33 418.62C193.716 418.076 195.696 417.775 199.224 416.355C203.958 414.449 204.029 414.44 205.312 415.597C205.901 416.128 208.006 416.557 210.619 416.68L214.948 416.883L216.915 412.86C218.452 409.713 219.004 407.555 219.443 402.956C219.792 399.306 219.783 396.422 219.419 395.353C218.787 393.494 219.134 383.758 220.151 374.792C221.792 360.322 222.039 356.12 222.368 337.035C222.738 315.58 223.492 304.662 224.875 300.741C225.331 299.448 226.169 295.804 226.738 292.644C227.757 286.981 228.572 284.894 229.082 286.639C229.331 287.492 230.485 295.369 232.02 306.705C232.5 310.246 233.383 313.516 234.446 315.68C235.365 317.552 236.607 320.616 237.206 322.489C237.805 324.361 239.624 328.678 241.249 332.083C242.874 335.487 245.061 340.64 246.109 343.534C248.096 349.025 252.56 364.944 253.311 369.222C254.097 373.699 258.367 389.429 260.116 394.29C260.916 396.514 262.853 409.849 262.88 413.324C262.884 413.75 263.47 414.681 264.182 415.394L265.477 416.69L263.965 420.191C263.133 422.117 261.946 425.445 261.327 427.587C260.293 431.161 260.282 431.564 261.192 432.475ZM269.731 222.192C271.088 221.466 271.311 219.588 270.155 218.63C269.729 218.278 267.587 217.664 265.394 217.267C263.202 216.87 260.298 215.978 258.942 215.286C256.577 214.078 256.444 214.073 255.661 215.144C252.932 218.88 257.545 222.679 264.938 222.782C266.916 222.81 269.073 222.544 269.731 222.192ZM151.546 172.106C151.546 170.079 151.294 167.781 150.986 166.999C150.677 166.217 150.114 164.045 149.733 162.173C148.83 157.729 148.329 156.981 146.618 157.524C145.381 157.917 145.283 158.243 145.626 160.84C145.834 162.424 146.166 165.98 146.362 168.743C146.708 173.62 146.775 173.794 148.668 174.738C149.741 175.273 150.827 175.729 151.082 175.751C151.338 175.773 151.546 174.132 151.546 172.106ZM114.286 165.113C113.929 159.076 112.008 153.897 110.26 154.259C109.605 154.394 109.23 154.964 109.313 155.697C109.389 156.365 109.489 159.697 109.535 163.101C109.581 166.506 109.745 169.5 109.898 169.755C110.051 170.011 111.169 170.22 112.382 170.22H114.588L114.286 165.113ZM60.2251 100.12C57.9338 96.3196 52.6398 90.9801 49.2482 89.0488C45.9939 87.1957 40.5753 84.8815 40.1321 85.1556C39.4211 85.5953 41.7164 87.4677 48.3314 91.8445C51.2694 93.7884 54.1656 95.9233 54.7675 96.5888C55.3694 97.2543 56.1266 97.7989 56.4501 97.7989C56.7737 97.7989 57.5858 98.4952 58.2548 99.3463C59.4881 100.915 61.0819 101.541 60.2251 100.12ZM218.714 35.4366C218.927 34.5004 219.614 31.6454 220.24 29.0921C221.303 24.7545 222.68 13.89 222.68 9.83809C222.68 8.71621 222.357 8.04674 221.815 8.04674C221.193 8.04674 220.832 9.30442 220.528 12.5343C220.295 15.0025 219.588 20.0859 218.957 23.8307C217.177 34.3839 216.909 37.1388 217.662 37.1388C218.028 37.1388 218.501 36.3728 218.714 35.4366ZM243.708 25.3022C245.193 12.9535 245.382 10.5227 244.86 10.5227C244.053 10.5227 242.437 19.2729 241.851 26.8227L241.791 27.5844L241.791 27.5852L241.7 28.7604C241.266 34.3528 241.173 35.7652 241.437 35.8358C241.528 35.86 241.661 35.7256 241.838 35.5479C241.858 35.5273 241.879 35.5061 241.901 35.4844C242.266 35.1192 243.079 30.5372 243.708 25.3022ZM214.421 112.848C214.927 113.355 212.524 117.524 207.404 125.028C202.836 131.722 201.062 133.395 200.131 131.888C199.353 130.627 201.189 123.19 203.657 117.606C209.568 104.234 209.844 103.696 210.619 104.031C214.037 100.861 221.417 94.1511 223.591 92.6761C224.729 91.919 228.216 89.5329 231.341 87.3737C237.415 83.1768 242.13 81.1129 243.199 82.183C244.233 83.2177 243.101 84.5994 233.321 94.2397C228.227 99.2612 223.615 103.37 223.073 103.37L214.421 112.848Z" fill="black"/>
    <path d="M214.433 112.902C214.104 112.573 209.702 117.891 205.59 124.102C204.187 126.22 202.954 127.868 202.85 127.763C202.745 127.659 202.616 126.453 202.562 125.083C202.455 122.34 203.836 119.069 208 112.203C210.59 107.934 211.684 104.511 210.474 103.989C212.437 101.382 217.281 97.3672 219.83 95.7356C219.686 96.369 220.404 97.0673 220.615 97.9079C220.88 98.9615 221.269 100.59 221.479 101.526C221.699 102.512 222.524 103.368 223.096 103.368L214.433 112.902Z" fill="#E51717"/>
</svg>
