<svg width="120" height="62" viewBox="0 0 120 62" fill="none" xmlns="http://www.w3.org/2000/svg">
    <g clip-path="url(#clip0_133_9)">
        <path d="M10.2463 0.106205C10.2463 0.106205 28.0075 6.21895 30.4181 7.14052C33.012 8.13071 37.7825 10.2729 39.5107 11.4886C41.2388 12.7042 49.1171 18.9052 50.3347 20.567C50.3347 20.567 49.6931 21.3562 49.6931 22.3366V39.7271C49.6931 39.7271 49.6081 40.1111 50.3347 41.134C50.3347 41.134 43.4171 47.6977 39.6612 50.2565C35.9054 52.8154 12.6013 61.4673 10.2463 61.8497C10.2463 61.8497 8.7096 62.4036 8.15482 61.3807C7.60003 60.3578 0 43.6454 0 31.3072C0 18.969 7.36437 1.74836 8.28246 0.468951C8.83725 -0.297389 10.2463 0.106205 10.2463 0.106205Z" fill="black"/>
        <path d="M66.7474 20.951H53.2575C52.1729 20.951 51.2937 21.8289 51.2937 22.9118V39.067C51.2937 40.1499 52.1729 41.0278 53.2575 41.0278H66.7474C67.832 41.0278 68.7112 40.1499 68.7112 39.067V22.9118C68.7112 21.8289 67.832 20.951 66.7474 20.951Z" fill="black"/>
        <path d="M109.754 0.10621C109.754 0.10621 91.9925 6.21895 89.5819 7.14052C86.988 8.13072 82.2175 10.2729 80.4893 11.4886C78.7611 12.7042 70.8829 18.9052 69.667 20.567C69.667 20.567 70.3068 21.3562 70.3068 22.3366V39.7271C70.3068 39.7271 70.392 40.1111 69.667 41.134C69.667 41.134 76.5829 47.6977 80.3388 50.2565C84.0946 52.8154 107.405 61.4673 109.754 61.8497C109.754 61.8497 111.29 62.4036 111.845 61.3807C112.4 60.3578 120 43.6454 120 31.3154C120 18.9853 112.636 1.75654 111.718 0.477125C111.163 -0.297385 109.754 0.10621 109.754 0.10621Z" fill="black"/>
        <path d="M29.5606 36.6471L29.2333 34.8693H27.7604L27.4331 36.6471H24.9767L27.3529 24.7843H29.6539L32.0301 36.6471H29.5606ZM28.8192 32.4542L28.5034 30.6569L28.1859 32.4542H28.8192Z" fill="white"/>
        <path d="M29.3855 25.1111L31.6308 36.3203H29.8306L29.5033 34.5425H27.4937L27.1663 36.3203H25.3662L27.6115 25.1111H29.3757M27.7866 32.781H29.1989L28.5034 28.7582L27.7964 32.7778M29.9239 24.4543H27.0845L26.9781 24.9788L24.7328 36.1879L24.5774 36.9706H27.7195L27.821 36.4379L28.0452 35.1977H28.9665L29.1891 36.4379L29.2873 36.9755H32.4294L32.2658 36.1928L30.0205 24.9837L29.9157 24.4592L29.9239 24.4543Z" fill="black"/>
        <path d="M32.1692 36.6471V24.7843H37.4748V27.1993H34.588V29.3644H36.5928V31.7794H34.588V36.6471H32.1692Z" fill="white"/>
        <path d="M37.1492 25.1111V26.8725H34.2607V29.6912H36.2654V31.4526H34.2607V36.3203H32.4965V25.1111H37.1492ZM37.8038 24.4575H31.8419V36.9739H34.9153V32.1062H36.9201V29.0376H34.9153V27.5261H37.8038V24.4575Z" fill="black"/>
        <path d="M37.686 36.6471V24.7843H42.9916V27.1993H40.1047V29.3644H42.1095V31.7794H40.1047V36.6471H37.686Z" fill="white"/>
        <path d="M42.6643 25.1111V26.8725H39.7774V29.6912H41.7822V31.4526H39.7774V36.3203H38.0133V25.1111H42.6643ZM43.3189 24.4575H37.3586V36.9739H40.432V32.1062H42.4368V29.0376H40.432V27.5261H43.3189V24.4575Z" fill="black"/>
        <path d="M43.2027 36.6471V24.7843H48.5083V27.1993H45.6215V29.3644H47.6099V31.7794H45.6215V34.232H48.5083V36.6471H43.2027Z" fill="white"/>
        <path d="M48.181 25.1111V26.8725H45.2942V29.6912H47.2825V31.4526H45.2942V34.5572H48.181V36.3186H43.5316V25.1095H48.1826M48.8372 24.4559H42.877V36.9722H48.8372V33.9052H45.9488V32.1078H47.9372V29.0376H45.9488V27.5261H48.8356V24.4575L48.8372 24.4559Z" fill="black"/>
        <path d="M53.0055 36.6471L51.9843 33.9379L50.9745 36.6471H48.3987L50.6063 30.7304L48.4003 24.7843H50.9745L51.981 27.4886L52.9891 24.7843H55.5814L53.3573 30.7304L55.5814 36.6471H53.0055Z" fill="white"/>
        <path d="M55.1084 25.1111L53.0088 30.732L55.1084 36.3203H53.233L51.9827 33.0065L50.7471 36.3219H48.87L50.9549 30.7337L48.87 25.1127H50.7471L51.9827 28.4314L53.2166 25.1176H55.1084M56.0527 24.4641H52.7616L52.598 24.8889L51.9777 26.5572L51.3559 24.8889L51.1922 24.4641H47.9192L48.2465 25.3448L50.2479 30.7369L48.2465 36.098L47.9192 36.9804H51.1922L51.3559 36.5539L51.981 34.8758L52.616 36.5572L52.7796 36.9804H56.0527L55.7254 36.0964L53.7108 30.7369L55.7254 25.3448L56.0527 24.4624V24.4641Z" fill="black"/>
        <path d="M58.1884 36.7745C57.4271 36.7986 56.6848 36.5348 56.11 36.0359L56.0969 36.0229C55.5012 35.4281 55.1984 34.6454 55.1984 33.6944V27.7369C55.1984 26.7859 55.5012 26.0033 56.0969 25.4085L56.11 25.3954C56.6847 24.8961 57.4269 24.6318 58.1884 24.6552C59.0394 24.6552 59.7414 24.9069 60.2717 25.4003C60.8739 25.9771 61.1783 26.7631 61.1783 27.7369V29.0572H58.7595V27.7369C58.7595 27.3203 58.6679 27.201 58.64 27.1748C58.5026 27.1053 58.3506 27.0691 58.1965 27.0691C58.0424 27.0691 57.8905 27.1053 57.753 27.1748C57.7039 27.2206 57.6172 27.3578 57.6172 27.7353V33.6928C57.6172 33.969 57.6679 34.1732 57.7547 34.2533C57.8833 34.3359 58.0361 34.3727 58.1884 34.3578C58.4813 34.3578 58.5975 34.2925 58.64 34.2533C58.6826 34.2141 58.7595 34.1095 58.7595 33.6928V31.9265H61.1783V33.6944C61.1783 34.6748 60.8739 35.4526 60.2749 36.0278C59.7414 36.5245 59.041 36.7745 58.1884 36.7745Z" fill="white"/>
        <path d="M58.1884 24.982C58.9592 24.982 59.5778 25.201 60.0491 25.6356C60.5837 26.1487 60.851 26.848 60.851 27.7337V28.7271H59.0868V27.7337C59.0868 27.3382 59.0121 27.0713 58.8626 26.933C58.6693 26.788 58.4292 26.7194 58.1884 26.7402C57.9538 26.7214 57.7205 26.7901 57.5338 26.933C57.3734 27.0833 57.2932 27.3502 57.2932 27.7337V33.6912C57.2932 34.0757 57.3734 34.3426 57.5338 34.4918C57.7208 34.634 57.954 34.7021 58.1884 34.683C58.429 34.7043 58.6691 34.6362 58.8626 34.4918C59.0115 34.3529 59.0868 34.085 59.0868 33.6912V32.25H60.851V33.6912C60.851 34.5768 60.5837 35.2756 60.0491 35.7876C59.5778 36.2255 58.9592 36.4412 58.1884 36.4412C57.5077 36.466 56.8428 36.2325 56.3276 35.7876C55.7941 35.2549 55.5268 34.5561 55.5257 33.6912V27.7369C55.5257 26.872 55.793 26.1727 56.3276 25.6389C56.8428 25.194 57.5077 24.9604 58.1884 24.9853M58.1884 24.3317C57.349 24.3069 56.531 24.5986 55.8972 25.1487L55.8841 25.1601L55.871 25.1732C55.2164 25.8268 54.876 26.6928 54.876 27.7337V33.6912C54.876 34.732 55.2033 35.5931 55.871 36.25L55.8841 36.2631L55.8972 36.2761C56.5309 36.8264 57.3489 37.1181 58.1884 37.0931C59.1261 37.0931 59.9018 36.8137 60.4959 36.2614C61.1619 35.6242 61.4991 34.7598 61.4991 33.6928V31.5997H58.4322V33.6944C58.4355 33.8015 58.425 33.9086 58.4011 34.0131C58.3312 34.0275 58.2598 34.0341 58.1884 34.0327C58.1195 34.0347 58.0508 34.0275 57.9838 34.0114C57.9528 33.9088 57.9395 33.8016 57.9445 33.6944V27.7369C57.9394 27.6298 57.9527 27.5226 57.9838 27.4199C58.0505 27.4021 58.1194 27.3944 58.1884 27.3971C58.2599 27.395 58.3314 27.4022 58.4011 27.4183C58.4251 27.5227 58.4356 27.6298 58.4322 27.7369V29.384H61.5056V27.7369C61.5056 26.6699 61.1685 25.8056 60.5024 25.1683C59.9084 24.6176 59.1326 24.3366 58.1949 24.3366L58.1884 24.3317Z" fill="black"/>
        <path d="M61.5989 36.6471V24.7843H64.0177V34.232H66.9045V36.6471H61.5989Z" fill="white"/>
        <path d="M63.6904 25.1111V34.5588H66.5772V36.3203H61.9262V25.1111H63.6904ZM64.345 24.4575H61.2716V36.9739H67.2318V33.9052H64.345V24.4575Z" fill="black"/>
        <path d="M70.009 36.7745C69.1564 36.7745 68.4559 36.5245 67.9241 36.031C67.3218 35.4526 67.0191 34.6683 67.0191 33.6944V24.7843H69.4378V33.6944C69.4378 34.1111 69.5295 34.2288 69.5573 34.2549C69.5851 34.281 69.721 34.3595 70.009 34.3595C70.1617 34.374 70.3149 34.3372 70.4443 34.2549C70.5294 34.1748 70.5785 33.9706 70.5785 33.6944V24.7843H72.9973V33.6944C72.9973 34.6438 72.6962 35.4281 72.1005 36.0229L72.0874 36.0359C71.5124 36.5345 70.7702 36.7982 70.009 36.7745Z" fill="white"/>
        <path d="M72.67 25.1111V33.6944C72.67 34.5583 72.4027 35.2571 71.8681 35.7908C71.3537 36.236 70.6892 36.4695 70.009 36.4444C69.2377 36.4444 68.6174 36.2266 68.1483 35.7908C67.6126 35.28 67.3453 34.5812 67.3464 33.6944V25.1111H69.1105V33.6944C69.1105 34.0882 69.1842 34.348 69.3348 34.4951C69.5283 34.6395 69.7683 34.7075 70.009 34.6863C70.2434 34.7057 70.4767 34.6376 70.6636 34.4951C70.824 34.3448 70.9042 34.0779 70.9042 33.6944V25.1111H72.6684M73.323 24.4575H70.2512V33.6944C70.2564 33.8015 70.2436 33.9086 70.2136 34.0114C70.1466 34.0275 70.0778 34.0347 70.009 34.0327C69.9376 34.0341 69.8662 34.0275 69.7962 34.0131C69.7723 33.9086 69.7619 33.8015 69.7652 33.6944V24.4575H66.6918V33.6944C66.6918 34.7614 67.0289 35.6258 67.6949 36.2631C68.2874 36.8154 69.0647 37.0948 70.0025 37.0948C70.8419 37.1197 71.6599 36.828 72.2936 36.2778L72.3067 36.2647L72.3198 36.2516C72.9744 35.598 73.3131 34.732 73.3131 33.6928V24.4575H73.323Z" fill="black"/>
        <path d="M76.2785 36.7745C75.4275 36.7745 74.7255 36.5245 74.1952 36.031C73.593 35.4526 73.2902 34.6683 73.2902 33.6944V31.9101H75.709V33.6944C75.709 33.9706 75.7581 34.1748 75.8449 34.2549C75.9735 34.3375 76.1263 34.3744 76.2785 34.3595C76.5764 34.3595 76.6762 34.2925 76.7057 34.2631L76.722 34.2467C76.7531 34.2222 76.8497 34.1046 76.8497 33.6944V32.9886C76.8489 32.79 76.8046 32.5941 76.7197 32.4145C76.6349 32.235 76.5117 32.0762 76.3587 31.9493C76.164 31.8106 75.9594 31.6861 75.7467 31.5768C75.3349 31.3708 74.946 31.1222 74.5864 30.835C74.1795 30.4796 73.8507 30.044 73.6208 29.5556C73.3997 29.0704 73.288 28.5428 73.2935 28.0098V27.7369C73.2935 26.7565 73.5963 25.9771 74.1952 25.4036C74.7304 24.9134 75.4308 24.6552 76.2818 24.6552C77.1328 24.6552 77.8349 24.9069 78.3667 25.4003C78.969 25.9771 79.2717 26.7631 79.2717 27.7369V29.0441H76.8497V27.7369C76.8497 27.3252 76.7515 27.2091 76.722 27.183L76.7057 27.1667C76.6762 27.1389 76.5764 27.0703 76.2785 27.0703C76.1256 27.0553 75.9721 27.0928 75.8432 27.1765C75.7941 27.2222 75.709 27.3595 75.709 27.7369V28.0098C75.7081 28.2036 75.7504 28.3952 75.8327 28.5707C75.9151 28.7462 76.0355 28.9012 76.1853 29.0245C76.3678 29.1537 76.5592 29.27 76.758 29.3725C77.1904 29.5877 77.5981 29.849 77.974 30.152C78.385 30.5009 78.7141 30.936 78.9378 31.4262C79.1616 31.9165 79.2745 32.4499 79.2685 32.9886V33.6944C79.2685 34.6748 78.9657 35.4526 78.3667 36.0278C77.8316 36.5245 77.1312 36.7745 76.2785 36.7745Z" fill="white"/>
        <path d="M76.2785 24.982C77.0488 24.982 77.669 25.1999 78.1393 25.6356C78.6739 26.1487 78.9412 26.848 78.9412 27.7337V28.714H77.177V27.7337C77.177 27.3382 77.0968 27.0713 76.9364 26.933C76.8088 26.8056 76.5895 26.7402 76.2818 26.7402C76.0472 26.7207 75.8137 26.7895 75.6272 26.933C75.4668 27.0833 75.3866 27.3502 75.3866 27.7337V28.0065C75.3857 28.2479 75.4383 28.4866 75.5407 28.7052C75.6432 28.9239 75.7929 29.1172 75.979 29.2712C76.1778 29.4142 76.3868 29.5425 76.6042 29.6552C77.0146 29.8589 77.4019 30.106 77.7596 30.3922C78.1366 30.7103 78.4384 31.1078 78.6436 31.5561C78.8487 32.0044 78.952 32.4925 78.9461 32.9853V33.6912C78.9461 34.5768 78.6788 35.2756 78.1442 35.7876C77.6739 36.2233 77.0537 36.4412 76.2834 36.4412C75.5132 36.4412 74.8935 36.2233 74.4243 35.7876C73.8897 35.2767 73.6225 34.5779 73.6225 33.6912V32.2337H75.3866V33.6912C75.3866 34.0757 75.4668 34.3426 75.6272 34.4918C75.8139 34.6348 76.0474 34.7029 76.2818 34.683C76.5927 34.683 76.811 34.6193 76.9364 34.4918C77.1001 34.3529 77.177 34.085 77.177 33.6912V32.9853C77.1763 32.7418 77.1231 32.5013 77.0208 32.2802C76.9186 32.0591 76.7698 31.8627 76.5846 31.7042C76.3701 31.5498 76.1448 31.4111 75.9103 31.2892C75.5176 31.0936 75.1468 30.857 74.804 30.5833C74.4317 30.2582 74.1312 29.8592 73.9219 29.4118C73.7182 28.9703 73.6143 28.4894 73.6175 28.0033V27.7304C73.6175 26.8448 73.8848 26.1454 74.4194 25.6324C74.8897 25.1966 75.5094 24.9788 76.2785 24.9788M76.2785 24.3252C75.3424 24.3252 74.5651 24.6062 73.9727 25.1585C73.3066 25.7958 72.9695 26.6601 72.9695 27.7271V28C72.9664 28.5809 73.0909 29.1554 73.3344 29.683C73.5813 30.211 73.9358 30.6819 74.3753 31.0654C74.6002 31.2524 74.8405 31.4202 75.0937 31.567H72.9662V33.6781C72.9662 34.7451 73.3033 35.6095 73.9694 36.2467C74.5618 36.799 75.3375 37.0784 76.2753 37.0784C77.213 37.0784 77.9887 36.799 78.5828 36.2467C79.2488 35.6078 79.586 34.7435 79.586 33.6781V32.9722C79.5921 32.3897 79.4702 31.8129 79.229 31.2825C78.9879 30.7521 78.6332 30.2808 78.19 29.902C77.9493 29.6986 77.6901 29.5181 77.4159 29.3627H79.5958V27.7288C79.5958 26.6618 79.2586 25.7974 78.5926 25.1601C77.9985 24.6095 77.2228 24.3284 76.2851 24.3284L76.2785 24.3252ZM76.074 27.4167C76.1406 27.3989 76.2096 27.3911 76.2785 27.3938C76.3485 27.3917 76.4183 27.3988 76.4864 27.415C76.515 27.5187 76.5271 27.6262 76.5224 27.7337V28.8546C76.4536 28.8121 76.416 28.7843 76.3947 28.7696C76.2819 28.677 76.1912 28.5605 76.1292 28.4285C76.0672 28.2965 76.0355 28.1523 76.0363 28.0065V27.7337C76.031 27.6266 76.0437 27.5195 76.074 27.4167ZM76.074 34.0082C76.0439 33.9053 76.0312 33.7982 76.0363 33.6912V32.1193C76.1083 32.165 76.1411 32.1879 76.1525 32.1961C76.2677 32.2931 76.3604 32.4138 76.4243 32.5501C76.4882 32.6864 76.5216 32.8349 76.5224 32.9853V33.6912C76.527 33.7986 76.5149 33.9061 76.4864 34.0098C76.4182 34.0252 76.3484 34.0318 76.2785 34.0294C76.2097 34.0314 76.1409 34.0242 76.074 34.0082Z" fill="black"/>
        <path d="M82.0588 24.7843H79.64V36.6471H82.0588V24.7843Z" fill="white"/>
        <path d="M81.7314 25.1111V36.3203H79.9673V25.1111H81.7314ZM82.3861 24.4575H79.3127V36.9739H82.3861V24.4575Z" fill="black"/>
        <path d="M84.5266 36.6471L82.1504 24.7843H84.6215L85.6771 30.7941L86.7343 24.7843H89.2038L86.8276 36.6471H84.5266Z" fill="white"/>
        <path d="M88.8045 25.1111L86.5592 36.3203H84.795L82.5497 25.1111H84.3499L85.6771 32.6797L87.0076 25.1062H88.8078M89.6064 24.4526H86.4577L86.3628 24.9935L85.6771 28.8987L84.9914 25L84.8949 24.4592H81.7511L81.9147 25.2402L84.1601 36.4493L84.2648 36.9755H87.096L87.2007 36.4493L89.446 25.2402L89.6097 24.4592L89.6064 24.4526Z" fill="black"/>
        <path d="M89.2955 36.6471V24.7843H94.6011V27.1993H91.7143V29.3644H93.7026V31.7794H91.7143V34.232H94.6011V36.6471H89.2955Z" fill="white"/>
        <path d="M94.2738 25.1111V26.8725H91.387V29.6912H93.3753V31.4526H91.387V34.5572H94.2738V36.3186H89.6228V25.1095H94.2738M94.9284 24.4559H88.9682V36.9722H94.9284V33.9052H92.0416V32.1078H94.0299V29.0376H92.0416V27.5261H94.9284V24.4575V24.4559Z" fill="black"/>
    </g>
    <defs>
        <clipPath id="clip0_133_9">
            <rect width="120" height="62" fill="white"/>
        </clipPath>
    </defs>
</svg>
