<svg width="282" height="287" viewBox="0 0 282 287" fill="none" xmlns="http://www.w3.org/2000/svg">
    <path d="M164.438 249.125H155.062V203.188C155.062 201.944 154.569 200.752 153.69 199.873C152.81 198.994 151.618 198.5 150.375 198.5C149.132 198.5 147.94 198.994 147.06 199.873C146.181 200.752 145.688 201.944 145.688 203.188V249.125H23.8125V155.375H62.8125C64.0557 155.375 65.248 154.881 66.1271 154.002C67.0061 153.123 67.5 151.931 67.5 150.688C67.5 149.444 67.0061 148.252 66.1271 147.373C65.248 146.494 64.0557 146 62.8125 146H19.125C17.8818 146 16.6895 146.494 15.8104 147.373C14.9314 148.252 14.4375 149.444 14.4375 150.688V249.125H5.0625C3.8193 249.125 2.62701 249.619 1.74794 250.498C0.86886 251.377 0.375 252.569 0.375 253.812V263.188C0.375 269.404 2.8443 275.365 7.23969 279.76C11.6351 284.156 17.5965 286.625 23.8125 286.625H145.688C151.904 286.625 157.865 284.156 162.26 279.76C166.656 275.365 169.125 269.404 169.125 263.188V253.812C169.125 252.569 168.631 251.377 167.752 250.498C166.873 249.619 165.681 249.125 164.438 249.125ZM159.75 263.188C159.75 266.917 158.268 270.494 155.631 273.131C152.994 275.768 149.417 277.25 145.688 277.25H136.312V272.562C136.312 271.319 135.819 270.127 134.94 269.248C134.06 268.369 132.868 267.875 131.625 267.875C130.382 267.875 129.19 268.369 128.31 269.248C127.431 270.127 126.938 271.319 126.938 272.562V277.25H42.5625V272.562C42.5625 271.319 42.0686 270.127 41.1896 269.248C40.3105 268.369 39.1182 267.875 37.875 267.875C36.6318 267.875 35.4395 268.369 34.5604 269.248C33.6814 270.127 33.1875 271.319 33.1875 272.562V277.25H23.8125C20.0829 277.25 16.506 275.768 13.8688 273.131C11.2316 270.494 9.75 266.917 9.75 263.188V258.5H159.75V263.188Z" fill="#292929"/>
    <path d="M220.688 192.875C220.688 196.583 221.787 200.209 223.847 203.292C225.908 206.375 228.836 208.779 232.262 210.198C235.688 211.617 239.458 211.988 243.095 211.265C246.733 210.541 250.074 208.755 252.696 206.133C255.318 203.511 257.104 200.17 257.827 196.533C258.551 192.896 258.179 189.126 256.76 185.7C255.341 182.274 252.938 179.345 249.854 177.285C246.771 175.225 243.146 174.125 239.438 174.125C234.465 174.125 229.696 176.1 226.179 179.617C222.663 183.133 220.688 187.902 220.688 192.875ZM248.812 192.875C248.812 194.729 248.263 196.542 247.233 198.083C246.202 199.625 244.738 200.827 243.025 201.536C241.312 202.246 239.427 202.432 237.609 202.07C235.79 201.708 234.119 200.815 232.808 199.504C231.497 198.193 230.604 196.523 230.243 194.704C229.881 192.885 230.067 191 230.776 189.287C231.486 187.574 232.687 186.11 234.229 185.08C235.771 184.05 237.583 183.5 239.438 183.5C241.924 183.5 244.308 184.488 246.067 186.246C247.825 188.004 248.812 190.389 248.812 192.875Z" fill="#E51717"/>
    <path d="M105.703 60.9219C106.449 61.3842 107.31 61.6278 108.188 61.625C108.921 61.6206 109.644 61.444 110.297 61.1094L138.422 47.0469C139.19 46.6535 139.834 46.0559 140.284 45.3198C140.734 44.5837 140.972 43.7377 140.972 42.875C140.972 42.0123 140.734 41.1663 140.284 40.4302C139.834 39.6941 139.19 39.0965 138.422 38.7031L110.297 24.6406C109.583 24.281 108.79 24.1098 107.991 24.1433C107.193 24.1767 106.416 24.4137 105.735 24.8317C105.054 25.2497 104.492 25.8348 104.1 26.5315C103.709 27.2283 103.502 28.0134 103.5 28.8125V56.9375C103.498 57.7341 103.7 58.518 104.085 59.2151C104.471 59.9123 105.028 60.4996 105.703 60.9219ZM112.875 36.4062L125.813 42.875L112.875 49.3437V36.4062Z" fill="#E51717"/>
    <path d="M117.562 85.0625C125.906 85.0625 134.063 82.5883 141.001 77.9526C147.938 73.317 153.346 66.7282 156.539 59.0195C159.732 51.3107 160.567 42.8282 158.939 34.6446C157.312 26.4611 153.294 18.944 147.394 13.044C141.494 7.14392 133.976 3.12595 125.793 1.49814C117.609 -0.129674 109.127 0.705779 101.418 3.89885C93.7093 7.09192 87.1205 12.4992 82.4849 19.4369C77.8493 26.3746 75.375 34.5311 75.375 42.875C75.375 54.0638 79.8197 64.7944 87.7314 72.7061C95.6431 80.6178 106.374 85.0625 117.562 85.0625ZM117.562 10.0625C124.052 10.0625 130.396 11.9869 135.792 15.5924C141.188 19.1979 145.394 24.3225 147.877 30.3182C150.361 36.3139 151.011 42.9114 149.745 49.2764C148.478 55.6414 145.353 61.488 140.764 66.077C136.176 70.6659 130.329 73.791 123.964 75.057C117.599 76.3231 111.001 75.6733 105.006 73.1898C99.01 70.7063 93.8854 66.5006 90.2799 61.1047C86.6744 55.7087 84.75 49.3647 84.75 42.875C84.75 34.1726 88.207 25.8266 94.3606 19.6731C100.514 13.5195 108.86 10.0625 117.562 10.0625ZM164.438 103.813C165.165 103.813 165.883 103.643 166.534 103.318C167.185 102.992 167.751 102.52 168.188 101.938L182.25 83.1875C182.996 82.1929 183.316 80.9428 183.14 79.7121C182.965 78.4814 182.307 77.3709 181.312 76.625C180.318 75.8791 179.068 75.5588 177.837 75.7346C176.606 75.9104 175.496 76.5679 174.75 77.5625L160.688 96.3125C159.942 97.3071 159.621 98.5572 159.797 99.7879C159.973 101.019 160.63 102.129 161.625 102.875C162.436 103.484 163.423 103.813 164.438 103.813ZM174.75 120.688C175.187 121.27 175.753 121.742 176.404 122.068C177.055 122.393 177.772 122.563 178.5 122.563C179.514 122.563 180.501 122.234 181.312 121.625L200.062 107.562C201.057 106.817 201.715 105.706 201.89 104.475C202.066 103.245 201.746 101.995 201 101C200.254 100.005 199.144 99.3479 197.913 99.1721C196.682 98.9963 195.432 99.3166 194.438 100.063L175.688 114.125C174.693 114.871 174.035 115.981 173.86 117.212C173.684 118.443 174.004 119.693 174.75 120.688ZM220.688 131C220.576 130.379 220.34 129.786 219.994 129.258C219.648 128.73 219.199 128.277 218.674 127.927C218.148 127.577 217.558 127.336 216.937 127.22C216.317 127.104 215.679 127.114 215.062 127.25L191.625 131.938C191.009 131.999 190.412 132.181 189.867 132.474C189.322 132.766 188.839 133.163 188.448 133.642C187.657 134.609 187.282 135.851 187.406 137.094C187.531 138.337 188.144 139.48 189.111 140.271C190.078 141.062 191.319 141.437 192.562 141.312H193.5L216.938 136.625C217.559 136.514 218.151 136.278 218.68 135.932C219.208 135.586 219.66 135.137 220.011 134.611C220.361 134.086 220.601 133.495 220.718 132.875C220.834 132.254 220.824 131.617 220.688 131ZM5.0625 131.938H61.3125C62.5557 131.938 63.748 131.444 64.6271 130.565C65.5061 129.686 66 128.493 66 127.25V52.25C66 51.0068 65.5061 49.8145 64.6271 48.9355C63.748 48.0564 62.5557 47.5625 61.3125 47.5625H5.0625C3.8193 47.5625 2.62701 48.0564 1.74794 48.9355C0.86886 49.8145 0.375 51.0068 0.375 52.25V127.25C0.375 128.493 0.86886 129.686 1.74794 130.565C2.62701 131.444 3.8193 131.938 5.0625 131.938ZM9.75 56.9375H56.625V122.563H9.75V56.9375Z" fill="#292929"/>
    <path d="M42.5625 66.3125H33.1875C31.9443 66.3125 30.752 66.8064 29.8729 67.6854C28.9939 68.5645 28.5 69.7568 28.5 71C28.5 72.2432 28.9939 73.4355 29.8729 74.3146C30.752 75.1936 31.9443 75.6875 33.1875 75.6875H42.5625C43.8057 75.6875 44.998 75.1936 45.8771 74.3146C46.7561 73.4355 47.25 72.2432 47.25 71C47.25 69.7568 46.7561 68.5645 45.8771 67.6854C44.998 66.8064 43.8057 66.3125 42.5625 66.3125ZM42.5625 85.0625H23.8125C22.5693 85.0625 21.377 85.5564 20.4979 86.4354C19.6189 87.3145 19.125 88.5068 19.125 89.75C19.125 90.9932 19.6189 92.1855 20.4979 93.0646C21.377 93.9436 22.5693 94.4375 23.8125 94.4375H42.5625C43.8057 94.4375 44.998 93.9436 45.8771 93.0646C46.7561 92.1855 47.25 90.9932 47.25 89.75C47.25 88.5068 46.7561 87.3145 45.8771 86.4354C44.998 85.5564 43.8057 85.0625 42.5625 85.0625ZM42.5625 103.812H23.8125C22.5693 103.812 21.377 104.306 20.4979 105.185C19.6189 106.065 19.125 107.257 19.125 108.5C19.125 109.743 19.6189 110.935 20.4979 111.815C21.377 112.694 22.5693 113.188 23.8125 113.188H42.5625C43.8057 113.188 44.998 112.694 45.8771 111.815C46.7561 110.935 47.25 109.743 47.25 108.5C47.25 107.257 46.7561 106.065 45.8771 105.185C44.998 104.306 43.8057 103.812 42.5625 103.812ZM160.312 130.531C160.005 129.996 159.594 129.526 159.105 129.149C158.616 128.772 158.057 128.495 157.461 128.334C156.864 128.173 156.242 128.131 155.63 128.21C155.017 128.29 154.426 128.489 153.891 128.797C153.355 129.105 152.885 129.515 152.508 130.004C152.131 130.494 151.854 131.052 151.693 131.649C151.532 132.245 151.49 132.867 151.57 133.48C151.649 134.092 151.848 134.683 152.156 135.219L172.828 170.984L97.8281 199.109H97.125L84.9375 206.141L76.8281 210.828C75.7605 211.445 74.5816 211.846 73.359 212.007C72.1364 212.168 70.894 212.086 69.7031 211.766C67.3106 211.119 65.2714 209.552 64.0312 207.406L54.6562 191.188C53.5533 189.066 53.303 186.602 53.9565 184.302C54.6101 182.001 56.1181 180.038 58.1719 178.812L74.3906 169.438L86.1094 189.734C86.5224 190.45 87.117 191.043 87.8332 191.455C88.5493 191.866 89.3615 192.081 90.1875 192.078C91.0119 192.081 91.8226 191.867 92.5378 191.457C93.253 191.047 93.8474 190.456 94.261 189.742C94.6746 189.029 94.8928 188.22 94.8936 187.395C94.8945 186.571 94.6778 185.761 94.2656 185.047L82.1719 164.141L141 115.625L142.922 118.953C143.23 119.489 143.64 119.958 144.129 120.335C144.619 120.712 145.177 120.989 145.774 121.15C146.37 121.311 146.992 121.353 147.605 121.274C148.217 121.195 148.808 120.995 149.344 120.688C149.879 120.38 150.349 119.969 150.726 119.48C151.103 118.991 151.38 118.432 151.541 117.836C151.702 117.239 151.744 116.617 151.665 116.005C151.585 115.392 151.386 114.801 151.078 114.266L146.391 106.156C146.047 105.569 145.58 105.063 145.021 104.675C144.463 104.286 143.826 104.024 143.156 103.906C142.483 103.779 141.789 103.802 141.125 103.972C140.461 104.142 139.842 104.455 139.312 104.891L73.6875 158.984L53.7188 170.516C50.1352 172.603 47.3448 175.819 45.7841 179.662C44.2235 183.504 43.9807 187.755 45.0938 191.75L40.4062 194.422C37.991 195.809 36.0421 197.882 34.8064 200.378C33.5708 202.874 33.1041 205.68 33.4657 208.442C33.8272 211.204 35.0006 213.796 36.837 215.889C38.6735 217.983 41.0904 219.485 43.7813 220.203C44.9742 220.519 46.2035 220.677 47.4375 220.672C49.9035 220.662 52.3251 220.016 54.4688 218.797L59.1562 216.125C61.408 218.451 64.2398 220.134 67.3594 221C68.9612 221.448 70.618 221.669 72.2812 221.656C75.5761 221.664 78.813 220.79 81.6562 219.125L85.7344 216.781L95.1094 233.047C96.9725 236.268 100.036 238.619 103.63 239.586C107.224 240.552 111.054 240.055 114.281 238.203C115.882 237.281 117.286 236.051 118.412 234.586C119.538 233.12 120.364 231.447 120.843 229.662C121.322 227.878 121.444 226.016 121.203 224.184C120.962 222.351 120.362 220.585 119.438 218.984L110.906 204.125L181.219 177.734C181.856 177.495 182.434 177.119 182.912 176.633C183.389 176.147 183.755 175.563 183.984 174.922C184.213 174.288 184.301 173.612 184.245 172.941C184.188 172.269 183.987 171.618 183.656 171.031L160.312 130.531ZM49.5938 210.641C49.0599 210.949 48.4705 211.149 47.8592 211.23C47.2479 211.31 46.6267 211.269 46.0312 211.109C44.8303 210.797 43.802 210.022 43.1719 208.953C42.8633 208.419 42.663 207.83 42.5826 207.219C42.5022 206.607 42.5431 205.986 42.7031 205.391C42.8632 204.792 43.1403 204.231 43.5184 203.74C43.8966 203.25 44.3683 202.839 44.9062 202.531L48.9844 200.188L53.6719 208.297L49.5938 210.641ZM111.281 223.766C111.59 224.299 111.79 224.889 111.871 225.5C111.951 226.111 111.91 226.733 111.75 227.328C111.416 228.52 110.624 229.531 109.547 230.141C108.476 230.756 107.206 230.923 106.012 230.607C104.819 230.292 103.798 229.517 103.172 228.453L93.7969 212.188L101.578 207.734H101.953L111.281 223.766Z" fill="#292929"/>
    <path d="M211.312 150.688H267.562C271.292 150.688 274.869 152.169 277.506 154.806C280.143 157.444 281.625 161.02 281.625 164.75V192.875C281.625 194.118 281.131 195.31 280.252 196.19C279.373 197.069 278.181 197.563 276.938 197.563C275.694 197.563 274.502 197.069 273.623 196.19C272.744 195.31 272.25 194.118 272.25 192.875V164.75C272.25 163.507 271.756 162.315 270.877 161.435C269.998 160.556 268.806 160.062 267.562 160.062H211.312C210.069 160.062 208.877 160.556 207.998 161.435C207.119 162.315 206.625 163.507 206.625 164.75V221C206.625 222.243 207.119 223.436 207.998 224.315C208.877 225.194 210.069 225.688 211.312 225.688H267.562C268.806 225.688 269.998 225.194 270.877 224.315C271.756 223.436 272.25 222.243 272.25 221V211.625C272.25 210.382 272.744 209.19 273.623 208.31C274.502 207.431 275.694 206.938 276.938 206.938C278.181 206.938 279.373 207.431 280.252 208.31C281.131 209.19 281.625 210.382 281.625 211.625V221C281.625 224.73 280.143 228.306 277.506 230.944C274.869 233.581 271.292 235.063 267.562 235.063H211.312C207.583 235.063 204.006 233.581 201.369 230.944C198.732 228.306 197.25 224.73 197.25 221V164.75C197.25 161.02 198.732 157.444 201.369 154.806C204.006 152.169 207.583 150.688 211.312 150.688Z" fill="#292929"/>
    <path d="M253.5 33.5H244.125C242.882 33.5 241.69 33.9939 240.81 34.8729C239.931 35.752 239.438 36.9443 239.438 38.1875V42.875H244.125C245.368 42.875 246.56 43.3689 247.44 44.2479C248.319 45.127 248.812 46.3193 248.812 47.5625C248.812 48.8057 248.319 49.998 247.44 50.8771C246.56 51.7561 245.368 52.25 244.125 52.25H239.438V66.3125C239.438 67.5557 238.944 68.748 238.065 69.6271C237.185 70.5061 235.993 71 234.75 71C233.507 71 232.315 70.5061 231.435 69.6271C230.556 68.748 230.062 67.5557 230.062 66.3125V52.25H225.375C224.132 52.25 222.94 51.7561 222.06 50.8771C221.181 49.998 220.688 48.8057 220.688 47.5625C220.688 46.3193 221.181 45.127 222.06 44.2479C222.94 43.3689 224.132 42.875 225.375 42.875H230.062V38.1875C230.062 34.4579 231.544 30.881 234.181 28.2438C236.819 25.6066 240.395 24.125 244.125 24.125H253.5C254.743 24.125 255.935 24.6189 256.815 25.4979C257.694 26.377 258.188 27.5693 258.188 28.8125C258.188 30.0557 257.694 31.248 256.815 32.1271C255.935 33.0061 254.743 33.5 253.5 33.5Z" fill="#E51717"/>
    <path d="M211.312 5.375H267.562C271.292 5.375 274.869 6.85658 277.506 9.49381C280.143 12.131 281.625 15.7079 281.625 19.4375V75.6875C281.625 79.4171 280.143 82.994 277.506 85.6312C274.869 88.2684 271.292 89.75 267.562 89.75H211.312C207.583 89.75 204.006 88.2684 201.369 85.6312C198.732 82.994 197.25 79.4171 197.25 75.6875V47.5625C197.25 46.3193 197.744 45.127 198.623 44.2479C199.502 43.3689 200.694 42.875 201.938 42.875C203.181 42.875 204.373 43.3689 205.252 44.2479C206.131 45.127 206.625 46.3193 206.625 47.5625V75.6875C206.625 76.9307 207.119 78.123 207.998 79.0021C208.877 79.8811 210.069 80.375 211.312 80.375H267.562C268.806 80.375 269.998 79.8811 270.877 79.0021C271.756 78.123 272.25 76.9307 272.25 75.6875V19.4375C272.25 18.1943 271.756 17.002 270.877 16.1229C269.998 15.2439 268.806 14.75 267.562 14.75H211.312C210.069 14.75 208.877 15.2439 207.998 16.1229C207.119 17.002 206.625 18.1943 206.625 19.4375V28.8125C206.625 30.0557 206.131 31.248 205.252 32.1271C204.373 33.0061 203.181 33.5 201.938 33.5C200.694 33.5 199.502 33.0061 198.623 32.1271C197.744 31.248 197.25 30.0557 197.25 28.8125V19.4375C197.25 15.7079 198.732 12.131 201.369 9.49381C204.006 6.85658 207.583 5.375 211.312 5.375Z" fill="#292929"/>
</svg>
