<svg width="48" height="48" viewBox="0 0 48 48" fill="none" xmlns="http://www.w3.org/2000/svg">
    <g clip-path="url(#clip0_167_570)">
        <path d="M40.9706 7.02938C36.4376 2.49656 30.4105 0 24 0C17.5895 0 11.5624 2.49647 7.02938 7.02938C2.49656 11.5624 0 17.5895 0 24C0 30.4105 2.49647 36.4376 7.02938 40.9706C11.5624 45.5034 17.5895 48 24 48C30.4105 48 36.4376 45.5035 40.9706 40.9706C45.5034 36.4376 48 30.4105 48 24C48 17.5895 45.5035 11.5624 40.9706 7.02938ZM10.4161 40.2466C11.2087 33.4277 17.0713 28.1632 24 28.1632C27.6525 28.1632 31.0873 29.5862 33.6709 32.1695C35.8535 34.3524 37.2301 37.2026 37.5842 40.2462C33.9038 43.3286 29.1651 45.1875 24 45.1875C18.8349 45.1875 14.0965 43.329 10.4161 40.2466ZM24 25.2663C19.9808 25.2663 16.7106 21.9961 16.7106 17.9769C16.7106 13.9574 19.9809 10.6875 24 10.6875C28.0191 10.6875 31.2894 13.9574 31.2894 17.9769C31.2894 21.9961 28.0192 25.2664 24 25.2664V25.2663ZM40.0049 37.8688C39.2823 34.9588 37.7799 32.3008 35.6594 30.1809C33.9309 28.4524 31.886 27.1556 29.6558 26.343C32.3368 24.5248 34.1019 21.453 34.1019 17.9769C34.1019 12.4069 29.5701 7.875 24 7.875C18.4299 7.875 13.8981 12.4069 13.8981 17.9769C13.8981 21.4549 15.6647 24.5277 18.3479 26.3456C16.296 27.0934 14.3973 28.2495 12.7636 29.7714C10.3978 31.9746 8.75503 34.7838 7.99331 37.8666C4.76737 34.1477 2.8125 29.298 2.8125 24C2.8125 12.3172 12.3172 2.8125 24 2.8125C35.6828 2.8125 45.1875 12.3172 45.1875 24C45.1875 29.299 43.2319 34.1499 40.0049 37.8688Z" fill="#292929"/>
    </g>
    <defs>
        <clipPath id="clip0_167_570">
            <rect width="48" height="48" fill="white"/>
        </clipPath>
    </defs>
</svg>
