<svg width="300" height="300" viewBox="0 0 300 300" fill="none" xmlns="http://www.w3.org/2000/svg">
    <path d="M226.083 222.944C227.323 219.954 225.904 216.526 222.915 215.287C219.926 214.048 216.498 215.466 215.258 218.455C214.019 221.445 215.437 224.873 218.427 226.112C221.416 227.352 224.844 225.933 226.083 222.944Z" fill="#292929"/>
    <path fill-rule="evenodd" clip-rule="evenodd" d="M223.554 177.982H214.979H203.237H194.661C158.214 177.982 128.562 207.634 128.562 244.082V244.176C128.562 247.418 131.19 250.047 134.433 250.047H165.258V261.826H147.349C136.99 261.826 128.562 270.253 128.562 280.652C128.562 291.011 136.99 299.439 147.349 299.439H270.868C281.227 299.439 289.654 291.011 289.654 280.612C289.654 270.253 281.227 261.826 270.868 261.826H252.958V250.047H283.784C287.026 250.047 289.655 247.419 289.655 244.176V244.082C289.655 207.634 260.003 177.982 223.554 177.982ZM270.868 287.696C274.753 287.696 277.913 284.536 277.913 280.651C277.913 276.726 274.753 273.566 270.868 273.566H147.349C143.464 273.566 140.304 276.726 140.304 280.611C140.304 284.536 143.464 287.696 147.349 287.696H270.868ZM177 261.824H241.216V250.046H177V261.824ZM194.662 189.723C166.641 189.723 143.503 211.038 140.609 238.304L277.608 238.305C277.18 234.293 276.303 230.343 274.994 226.527H247.088C243.845 226.527 241.216 223.898 241.216 220.656C241.216 217.413 243.846 214.785 247.088 214.785H269.319C259.644 199.724 242.747 189.723 223.555 189.723H194.662Z" fill="#292929"/>
    <path fill-rule="evenodd" clip-rule="evenodd" d="M129.063 140.341L119.303 98.7187C119.281 98.6267 119.266 98.5344 119.251 98.442C119.246 98.4114 119.241 98.3808 119.236 98.3502L95.2436 93.9609L104.785 113.496C106.949 117.927 107.503 123.067 106.32 127.855C104.485 135.281 98.6273 141.276 91.2328 143.251C83.799 145.236 75.6023 142.911 70.3283 137.306L31.377 95.9068C12.3328 86.7263 0.0568361 67.3084 1.23536e-07 46.1027L1.23536e-07 6.43241C-0.000194211 5.48508 0.228895 4.55178 0.667703 3.71221C1.10651 2.87265 1.742 2.15176 2.5199 1.61111C3.2978 1.07046 4.19499 0.726116 5.13486 0.607487C6.07473 0.488857 7.02935 0.599467 7.91719 0.929868L131.82 47.0039C132.372 47.2092 132.89 47.4966 133.356 47.8564L216.319 111.782C219.534 114.241 221.767 118.136 222.762 122.012C224.557 129.004 222.374 136.655 217.034 141.554C210.635 147.424 201.089 147.361 193.999 142.757L165.191 125.599L166.299 129.599C167.849 134.372 167.477 139.622 165.198 144.101C161.476 151.419 153.22 155.469 145.137 154.224C141.333 153.634 137.776 151.969 134.885 149.426C132.257 147.104 129.875 143.805 129.063 140.341ZM154.503 139.195C155.712 137.17 155.62 135.058 155.021 132.868L150.666 116.948L133.198 106.544L140.424 137.362C141.819 141.166 146.082 143.477 150.032 142.472C151.883 142.001 153.52 140.842 154.503 139.195ZM94.2346 118.649L79.5926 88.6711C77.5166 84.4224 81.2842 79.4748 85.9248 80.3191L122.684 87.0439C123.372 87.17 124.031 87.4177 124.632 87.7752L200.112 132.731C201.797 133.74 203.553 134.554 205.572 134.417C207.518 134.285 209.072 133.218 210.159 131.64C212.456 128.303 212.13 123.727 209.02 120.981L126.894 57.6996L11.7416 14.8793V46.0875C11.7873 63.0984 21.8273 78.6633 37.3201 85.7256C38.0133 86.0418 38.6384 86.4897 39.1605 87.0445L78.8795 129.26C81.9311 132.503 87.0252 133.149 90.7904 130.774C94.8082 128.241 96.3223 122.923 94.2346 118.649Z" fill="#292929"/>
    <path d="M214.802 168.242V177.956H203.06V168.242H197.171C193.928 168.242 191.3 165.614 191.3 162.371C191.3 159.129 193.929 156.5 197.171 156.5H220.691C223.934 156.5 226.562 159.129 226.562 162.371C226.562 165.614 223.933 168.242 220.691 168.242H214.802Z" fill="#E51717"/>
    <path d="M257.365 117.758C255.428 120.302 251.685 120.811 249.138 118.873C246.558 116.908 246.058 113.225 248.022 110.645L261.981 92.3097C263.945 89.7304 267.627 89.2294 270.209 91.1946C272.789 93.1587 273.288 96.8425 271.324 99.4224L257.365 117.758Z" fill="#E51717"/>
    <path d="M233.113 107.852H233.093C229.851 107.842 227.231 105.204 227.242 101.962L227.329 75.9942C227.34 72.7587 229.966 70.1431 233.199 70.1431H233.219C236.462 70.1542 239.082 72.7915 239.071 76.0335L238.984 102.001C238.973 105.237 236.347 107.852 233.113 107.852Z" fill="#E51717"/>
    <path d="M292.546 117.555C295.667 116.681 298.908 118.503 299.781 121.626C300.655 124.75 298.832 127.989 295.71 128.862L270.702 135.857C267.534 136.743 264.172 134.761 263.409 131.562C262.688 128.536 264.544 125.388 267.539 124.55L292.546 117.555Z" fill="#E51717"/>
</svg>
