<svg width="48" height="48" viewBox="0 0 48 48" fill="none" xmlns="http://www.w3.org/2000/svg">
<g id="Skype">
<path id="Combined-Shape" fill-rule="evenodd" clip-rule="evenodd" d="M0 24C0 37.2548 10.7452 48 24 48C37.2548 48 48 37.2548 48 24C48 10.7452 37.2548 0 24 0C10.7452 0 0 10.7452 0 24ZM36.3454 24.1328C36.3454 25.0201 36.2491 25.8837 36.064 26.7176C36.5351 27.6524 36.8 28.7044 36.8 29.8187C36.8 33.6736 33.6301 36.8 29.7197 36.8C28.508 36.8 27.3701 36.4988 26.3722 35.9706C25.6467 36.1026 24.9001 36.1724 24.1355 36.1724C17.3923 36.1724 11.9255 30.7832 11.9255 24.1328C11.9255 23.3048 12.0113 22.4947 12.1723 21.7142C11.5552 20.6755 11.2 19.4707 11.2 18.1828C11.2 14.3249 14.3699 11.2 18.2818 11.2C19.6651 11.2 20.9565 11.5932 22.0478 12.2713C22.7281 12.1556 23.425 12.0947 24.1355 12.0947C30.8801 12.0947 36.3454 17.4854 36.3454 24.1328Z" fill="#292929"/>
<path id="s" d="M30.3985 29.8868C29.8341 30.6762 29.0002 31.2994 27.9165 31.7415C26.8463 32.1807 25.5639 32.4048 24.1023 32.4048C22.3488 32.4048 20.8783 32.1006 19.7298 31.4997C18.9095 31.0634 18.2337 30.4729 17.7204 29.7399C17.2011 29.0039 16.9392 28.2724 16.9392 27.5646C16.9392 27.1254 17.1108 26.7426 17.448 26.4295C17.7821 26.1179 18.2111 25.9621 18.7229 25.9621C19.1413 25.9621 19.504 26.0853 19.7975 26.3301C20.079 26.566 20.3198 26.9147 20.514 27.3614C20.7308 27.851 20.9656 28.2635 21.2139 28.5855C21.4547 28.9001 21.7994 29.1627 22.2389 29.3689C22.6815 29.5737 23.279 29.6805 24.012 29.6805C25.022 29.6805 25.8499 29.4669 26.4715 29.0484C27.0811 28.6404 27.3761 28.1478 27.3761 27.5454C27.3761 27.072 27.2211 26.6981 26.905 26.4043C26.5708 26.0986 26.1328 25.8612 25.6015 25.6951C25.0461 25.5259 24.2935 25.3404 23.3618 25.1475C22.0929 24.8805 21.0167 24.5644 20.1618 24.2038C19.2858 23.8373 18.5799 23.3284 18.0636 22.6918C17.5398 22.0434 17.2734 21.2318 17.2734 20.2777C17.2734 19.3696 17.5518 18.5491 18.1027 17.8428C18.6476 17.141 19.4453 16.5919 20.4734 16.2195C21.4864 15.85 22.6905 15.6631 24.0557 15.6631C25.1454 15.6631 26.1042 15.7877 26.905 16.034C27.7102 16.2803 28.3876 16.6127 28.9204 17.0237C29.4578 17.4392 29.8581 17.8799 30.108 18.3399C30.3609 18.8043 30.4903 19.2658 30.4903 19.7124C30.4903 20.1427 30.3217 20.5344 29.9891 20.8742C29.6549 21.2184 29.232 21.392 28.7353 21.392C28.2837 21.392 27.9285 21.2822 27.6847 21.0686C27.4559 20.8683 27.2181 20.5567 26.9547 20.1115C26.6506 19.5417 26.2818 19.0921 25.8589 18.7746C25.448 18.466 24.7631 18.3117 23.8194 18.3117C22.9464 18.3117 22.2329 18.4838 21.7046 18.8265C21.1959 19.1545 20.9475 19.5328 20.9475 19.9809C20.9475 20.254 21.0273 20.484 21.1928 20.6798C21.3644 20.8905 21.6098 21.0715 21.9198 21.2259C22.2404 21.3846 22.5716 21.5122 22.9027 21.6013C23.2414 21.6947 23.8103 21.8327 24.5915 22.0108C25.5804 22.2185 26.488 22.4544 27.2903 22.7082C28.1046 22.9634 28.806 23.2779 29.381 23.6474C29.965 24.0228 30.4271 24.5036 30.7567 25.0793C31.0864 25.6594 31.2534 26.3717 31.2534 27.2011C31.2534 28.1923 30.9644 29.0959 30.3985 29.8868Z" fill="#292929"/>
</g>
</svg>
