<svg width="370" height="407" viewBox="0 0 370 407" fill="none" xmlns="http://www.w3.org/2000/svg">
    <path fill-rule="evenodd" clip-rule="evenodd" d="M63.715 0.230913C60.1838 0.918077 48.816 11.5089 43.4084 19.1498C40.437 23.3483 34.0498 29.1942 27.6624 33.5612C23.9822 36.0773 16.2989 42.0422 10.016 47.261C5.97009 50.6219 5.42685 51.1762 4.4039 52.9882C2.2076 56.8794 0.773904 62.5607 0.215735 69.5867C-0.230582 75.2041 0.0452443 85.9854 0.770375 91.2686C3.28078 109.558 8.86355 133.136 18.044 164.224C24.1673 184.958 29.3464 197.896 40.5589 220.469C54.2346 247.999 72.6025 279.305 93.6457 310.949C117.079 346.187 153.413 385.058 180.864 404.257C183.021 405.766 184.854 407 184.937 407C185.473 407 193.59 401.058 199.24 396.531C208.217 389.336 214.794 383.363 224.809 373.308C239.105 358.956 249.91 346.52 263.88 328.339C268.786 321.954 271.121 318.668 276.591 310.449C303.163 270.521 326.424 229.274 339.489 198.917C344.672 186.875 347.873 178.018 351.24 166.397C351.846 164.305 353.024 160.27 353.857 157.431C360.838 133.636 366.921 107.578 368.89 93.0348C370.656 80.0012 370.299 67.3086 367.932 58.9347C367.108 56.0186 365.084 51.8557 363.933 50.7099C361.769 48.5541 348.51 37.9861 343.862 34.7106C334.349 28.0077 328.967 23.0418 325.355 17.6342C322.304 13.0664 312.566 3.70179 308.104 1.04415C306.639 0.17168 306.547 0.15429 303.223 0.131738L299.835 0.108643L299.368 1.05964C298.706 2.4049 298.761 3.54093 299.541 4.61963C305.501 12.8637 309.482 26.5141 311.144 44.398C311.62 49.5168 311.617 71.1007 311.139 77.1395C309.594 96.6896 307.665 109.129 301.152 141.536C291.079 191.657 277.29 237.094 263.387 265.981C262.272 268.297 260.531 272.087 259.518 274.404C244.997 307.608 232.586 332.496 224.357 344.913C222.97 347.006 220.005 351.835 217.768 355.646C210.378 368.234 203.265 379.929 202.84 380.192C202.726 380.263 202.664 317.018 202.701 239.65L202.77 98.9796L201.954 98.3761L201.139 97.7726L201.14 240.447C201.142 336.109 201.051 383.29 200.867 383.635C200.388 384.531 195.73 391.77 192.913 395.996C189.763 400.721 188.587 402.363 186.539 404.899C185.27 406.469 184.992 406.687 184.633 406.393C182.717 404.826 168.149 383.113 169.625 384.026C169.836 384.157 169.919 342.79 169.919 237.823V91.4387L169.104 92.2202L168.289 93.0016L168.358 237.63C168.421 370.14 168.39 382.22 167.992 381.791C167.301 381.045 158.484 366.464 152.019 355.374C149.885 351.713 147.928 348.412 147.669 348.038C143.91 342.593 140.343 336.629 136.049 328.611C133.769 324.354 126.707 310.201 124.524 305.515C123.828 304.021 122.572 301.348 121.733 299.576C119.517 294.894 114.127 282.954 110.881 275.535C109.334 271.998 107.096 267.088 105.908 264.622C92.5956 236.989 78.7696 191.206 68.8186 141.807C64.4687 120.214 62.3495 108.381 60.935 97.7897C57.8192 74.4563 57.4011 53.4841 59.7109 36.3824C61.4487 23.5157 65.3626 11.4763 69.7322 5.5565C71.0271 3.80205 71.196 3.24232 70.8349 1.90032C70.3598 0.134456 70.0427 -0.0315623 67.2117 0.00403221C65.841 0.0211502 64.2678 0.123314 63.715 0.230913ZM67.8912 12.2491C64.0169 19.027 62.4648 26.0818 63.6336 31.6035C64.8571 37.3834 68.5526 41.4629 78.6061 48.1319C83.1839 51.1685 92.5302 56.8713 92.6763 56.7172C92.7243 56.6667 93.0838 55.2801 93.4752 53.6363C95.0925 46.8431 96.534 42.7136 97.4986 42.1107C97.829 41.9042 98.9163 41.6768 99.9148 41.6053L101.73 41.4754L97.6137 39.3922C88.5866 34.8239 81.5072 29.432 76.2315 23.1065C72.9348 19.1541 70.087 14.607 69.0741 11.6793L68.751 10.7451L67.8912 12.2491ZM299.978 13.612C298.234 17.7649 293.806 23.792 289.913 27.3134C287.579 29.4238 284.445 31.7894 281.518 33.6512C278.672 35.4602 271.77 38.8037 268.875 39.7759C266.39 40.61 265.45 41.2312 266.935 41.0578C267.805 40.9559 267.907 41.0377 268.851 42.5924C271.019 46.1652 272.65 50.5197 273.568 55.188L274.033 57.5549L278.279 55.7002C292.604 49.4418 302.792 41.5159 306.354 33.8579C307.103 32.2486 307.201 30.1933 306.738 25.794C306.328 21.8933 305.507 18.874 304.041 15.8699C302.977 13.6889 301.393 11.3679 300.982 11.3883C300.942 11.3902 300.49 12.3909 299.978 13.612ZM183.861 155.132C181.12 155.675 178.354 157.9 177.192 160.496C176.773 161.433 176.612 162.365 176.595 163.957C176.573 165.897 176.668 166.334 177.463 167.95C178.542 170.144 180.232 171.722 182.368 172.528C183.605 172.995 184.32 173.085 186.073 172.992C188.617 172.857 189.964 172.268 191.919 170.438C193.82 168.658 194.485 166.976 194.481 163.952C194.478 161.689 194.408 161.378 193.551 159.786C192.148 157.18 190.095 155.688 187.171 155.147C185.395 154.818 185.446 154.818 183.861 155.132ZM184.797 161.153C184.976 161.333 185.122 161.63 185.122 161.813C185.122 162.195 184.385 163.001 184.036 163.001C183.909 163.001 183.612 162.809 183.377 162.574C183.142 162.339 182.951 162.042 182.951 161.914C182.951 161.565 183.756 160.827 184.137 160.827C184.321 160.827 184.617 160.974 184.797 161.153ZM188.098 161.351C188.423 161.958 188.236 162.623 187.681 162.836C187.113 163.054 186.524 162.753 186.332 162.148C185.975 161.023 187.544 160.315 188.098 161.351ZM184.84 164.482C185.328 165.071 184.93 165.99 184.187 165.99C183.292 165.99 182.833 165.359 183.213 164.649C183.561 163.997 184.369 163.915 184.84 164.482ZM188.128 164.518C188.604 165.092 188.129 165.854 187.294 165.854C186.46 165.854 185.985 165.092 186.461 164.518C186.657 164.282 187.032 164.088 187.294 164.088C187.556 164.088 187.931 164.282 188.128 164.518ZM182.647 250.309C180.178 251.232 178.446 252.867 177.284 255.371C176.339 257.41 176.318 260.575 177.235 262.555C179.097 266.569 183.538 268.801 187.594 267.761C190.551 267.002 192.34 265.557 193.831 262.72C194.376 261.683 194.474 261.105 194.474 258.916C194.474 255.958 194.056 254.869 192.105 252.751C190.381 250.879 188.711 250.143 185.937 250.033C184.45 249.974 183.28 250.072 182.647 250.309ZM184.999 256.509C185.355 257.633 183.786 258.341 183.233 257.305C182.889 256.663 183.115 255.993 183.72 255.857C184.397 255.705 184.811 255.916 184.999 256.509ZM188.225 256.381C188.443 256.951 187.906 257.829 187.339 257.829C186.784 257.829 186.208 257.327 186.208 256.843C186.208 255.84 187.871 255.46 188.225 256.381ZM184.696 259.343C184.93 259.578 185.122 259.875 185.122 260.003C185.122 260.305 184.338 261.09 184.036 261.09C183.735 261.09 182.951 260.305 182.951 260.003C182.951 259.701 183.735 258.916 184.036 258.916C184.164 258.916 184.461 259.108 184.696 259.343ZM187.954 259.343C188.188 259.578 188.38 259.875 188.38 260.003C188.38 260.251 187.618 261.09 187.393 261.09C186.984 261.09 186.208 260.473 186.208 260.148C186.208 259.731 186.927 258.916 187.294 258.916C187.422 258.916 187.719 259.108 187.954 259.343ZM183.086 337.678C181.284 337.995 179.515 339.028 178.075 340.606C171.741 347.542 179.145 358.385 187.962 355.083C189.954 354.338 192.191 352.277 193.023 350.421C193.932 348.395 193.951 344.662 193.062 342.855C191.199 339.072 187.141 336.965 183.086 337.678ZM184.026 343.814C184.714 344.643 183.596 345.97 182.78 345.292C182.393 344.97 182.273 343.916 182.589 343.6C182.902 343.287 183.685 343.403 184.026 343.814ZM187.283 343.814C187.93 344.594 187.038 345.79 186.083 345.423C185.095 345.044 185.417 343.419 186.48 343.419C186.742 343.419 187.103 343.596 187.283 343.814ZM184.055 347.11C184.538 347.691 184.052 348.446 183.196 348.446C182.531 348.446 182.223 347.825 182.512 347.071C182.712 346.55 183.61 346.573 184.055 347.11ZM187.313 347.11C187.789 347.684 187.314 348.446 186.48 348.446C185.645 348.446 185.17 347.684 185.646 347.11C185.843 346.873 186.218 346.68 186.48 346.68C186.742 346.68 187.117 346.873 187.313 347.11ZM202.497 381.018C202.497 381.074 202.283 381.289 202.022 381.494C201.592 381.831 201.582 381.822 201.92 381.391C202.274 380.938 202.497 380.795 202.497 381.018Z" fill="black"/>
    <path fill-rule="evenodd" clip-rule="evenodd" d="M265.328 43.3142C255.401 44.6676 252.745 45.0774 248.767 45.8692C246.229 46.3746 243.175 47.0815 241.98 47.4399C221.065 53.7192 207.343 59.1997 202.26 63.3037L201.632 63.8099L202.307 65.8344C203.281 68.7589 203.669 71.9257 203.482 75.4455C203.19 80.9615 201.408 85.5905 197.775 90.2615L196.412 92.014L198.864 94.3372C210.936 105.776 233.296 114.493 258.405 117.55C263.706 118.196 263.987 118.214 264.476 117.94C265.733 117.236 267.41 113.049 268.429 108.072C268.735 106.578 269.238 104.255 269.546 102.91C272.454 90.2392 273.874 76.4954 273.325 66.3189C272.855 57.5814 271.511 51.5708 268.841 46.2574C267.2 42.9928 267.268 43.0496 265.328 43.3142ZM98.5958 43.8107C96.871 44.5071 93.4287 58.9592 92.5442 69.2173C92.1893 73.3348 92.1847 85.635 92.536 92.0412C93.1561 103.35 94.9633 113.101 97.3014 117.751C98.5103 120.156 100.922 120.448 106.999 118.927C119.787 115.725 133.971 110.97 144.246 106.441C155.275 101.581 164.646 95.5596 169.092 90.4767L170.223 89.1841L169.533 85.0424C168.321 77.7732 167.954 73.6782 168.046 68.4559L168.131 63.6191L166.777 62.7714C164.429 61.3025 156.882 57.7681 153.07 56.3524C143.496 52.7971 125.947 48.1999 108.38 44.6451C102.992 43.555 99.8856 43.2901 98.5958 43.8107ZM183.747 60.232C177.852 60.987 173.971 61.8813 171.759 62.9945L170.495 63.6308L170.295 66.0165C170.06 68.8328 170.309 76.8347 170.715 79.5424C171.564 85.2005 173.191 88.8671 175.48 90.2832C176.906 91.1649 181.935 91.7238 186.869 91.5489C192.492 91.3494 193.307 91.0679 195.94 88.419C199.761 84.5745 201.122 80.8811 201.122 74.357C201.122 69.8919 200.838 68.3747 199.504 65.7135C198.381 63.4751 196.423 61.7272 193.881 60.6952C191.889 59.8869 187.875 59.7032 183.747 60.232Z" fill="#E51717"/>
</svg>
