<svg width="300" height="250" viewBox="0 0 300 250" fill="none" xmlns="http://www.w3.org/2000/svg">
    <path d="M33.4242 181.505L1.40273 212.961C0.738834 213.614 0.284094 214.449 0.0964354 215.36C-0.0912228 216.272 -0.00330433 217.219 0.348991 218.08C0.701287 218.941 1.30201 219.678 2.07465 220.197C2.84728 220.716 3.75685 220.993 4.6875 220.993H93.9504C100.356 229.868 108.778 237.095 118.522 242.079C128.266 247.064 139.055 249.663 150 249.663C160.945 249.663 171.734 247.064 181.479 242.079C191.223 237.095 199.645 229.868 206.05 220.993H295.312C296.243 220.993 297.153 220.716 297.925 220.197C298.698 219.678 299.299 218.941 299.651 218.08C300.003 217.219 300.091 216.272 299.904 215.36C299.716 214.449 299.261 213.614 298.597 212.961L266.576 181.505L298.702 147.867C299.336 147.203 299.761 146.368 299.925 145.464C300.089 144.561 299.983 143.63 299.622 142.786C299.261 141.942 298.661 141.222 297.894 140.716C297.128 140.211 296.23 139.941 295.312 139.941H290.555C291.592 130.846 289.449 121.672 284.492 113.977C283.906 113.072 283.025 112.396 281.999 112.065C273.386 109.177 265.16 105.245 257.504 100.355C256.97 100.022 256.374 99.799 255.753 99.7005C255.131 99.602 254.496 99.6296 253.885 99.7819C253.274 99.9341 252.701 100.208 252.198 100.587C251.695 100.965 251.274 101.442 250.959 101.987L242.674 116.336L234.388 101.987C234.074 101.442 233.652 100.965 233.15 100.587C232.647 100.208 232.073 99.9341 231.463 99.7819C230.852 99.6296 230.217 99.602 229.595 99.7005C228.973 99.799 228.378 100.022 227.844 100.355C221.909 104.106 215.651 107.319 209.144 109.957C207.85 102.8 205.849 96.2972 203.041 91.9631C202.455 91.0583 201.575 90.3833 200.549 90.0517C190.169 86.6978 179.382 81.5427 168.486 74.7295C167.953 74.3958 167.357 74.173 166.736 74.0744C166.114 73.9758 165.479 74.0035 164.868 74.1556C164.257 74.3078 163.683 74.5815 163.181 74.9602C162.678 75.3389 162.257 75.815 161.942 76.3601L150 97.0437L138.058 76.3601C137.743 75.815 137.322 75.3389 136.819 74.9602C136.317 74.5815 135.743 74.3078 135.132 74.1556C134.521 74.0035 133.886 73.9758 133.264 74.0744C132.643 74.173 132.047 74.3958 131.514 74.7295C120.618 81.5427 109.834 86.6978 99.4512 90.0517C98.4254 90.3833 97.5453 91.0583 96.9592 91.9631C94.1725 96.2632 92.1803 102.786 90.8853 109.971C84.3681 107.33 78.1 104.112 72.1558 100.355C71.6221 100.022 71.0267 99.799 70.405 99.7005C69.7833 99.602 69.1482 99.6296 68.5374 99.7819C67.9267 99.9341 67.3528 100.208 66.8501 100.587C66.3475 100.965 65.9262 101.442 65.6115 101.987L57.3264 116.336L49.043 101.987C48.7283 101.442 48.307 100.965 47.8043 100.587C47.3016 100.208 46.7278 99.9341 46.1171 99.7819C45.5063 99.6296 44.8712 99.602 44.2495 99.7005C43.6278 99.799 43.0324 100.022 42.4986 100.355C34.8425 105.245 26.6159 109.177 18.0029 112.065C16.9769 112.396 16.0966 113.072 15.5103 113.977C10.5096 121.654 8.3616 130.843 9.44062 139.941H4.6875C3.76951 139.941 2.87173 140.211 2.10554 140.716C1.33934 141.222 0.738477 141.942 0.377491 142.786C0.0165046 143.63 -0.0887101 144.561 0.0749021 145.464C0.238514 146.368 0.663751 147.203 1.29785 147.867L33.4242 181.505ZM16.1484 211.618L43.2914 184.954C44.1702 184.091 44.6739 182.917 44.6935 181.685C44.7132 180.453 44.2472 179.263 43.3963 178.372L15.6445 149.316H88.2252C83.3465 158.976 80.8048 169.646 80.8048 180.467C80.8048 191.289 83.3465 201.959 88.2252 211.618H16.1484ZM150 240.288C138.169 240.288 126.603 236.779 116.765 230.206C106.928 223.633 99.2606 214.29 94.7329 203.36C90.2052 192.429 89.0205 180.401 91.3287 168.797C93.6369 157.193 99.3343 146.534 107.7 138.168C116.066 129.801 126.725 124.104 138.33 121.796C149.934 119.488 161.962 120.672 172.892 125.2C183.823 129.728 193.166 137.395 199.739 147.233C206.312 157.07 209.821 168.636 209.821 180.467C209.803 196.327 203.495 211.532 192.28 222.747C181.065 233.962 165.86 240.27 150 240.288ZM256.604 178.372C255.753 179.263 255.287 180.453 255.307 181.685C255.326 182.916 255.83 184.091 256.709 184.954L283.852 211.618H211.775C216.654 201.959 219.196 191.289 219.196 180.467C219.196 169.646 216.654 158.976 211.775 149.316H284.355L256.604 178.372ZM228.655 110.809L238.612 128.054C239.024 128.766 239.616 129.358 240.328 129.769C241.041 130.181 241.849 130.397 242.672 130.397C243.495 130.397 244.303 130.181 245.015 129.769C245.728 129.358 246.32 128.766 246.731 128.054L256.688 110.809C263.282 114.681 270.236 117.903 277.453 120.43C280.828 126.338 282.112 133.213 281.098 139.941H210.694C211.188 133.138 211.103 126.306 210.44 119.517C216.745 117.128 222.839 114.215 228.657 110.809H228.655ZM104.047 98.4054C113.904 94.9825 123.383 90.5571 132.336 85.199L145.941 108.762C146.352 109.475 146.944 110.067 147.656 110.478C148.369 110.889 149.177 111.106 150 111.106C150.823 111.106 151.631 110.889 152.344 110.478C153.056 110.067 153.648 109.475 154.059 108.762L167.664 85.199C176.616 90.5569 186.095 94.9818 195.951 98.4043C199.897 105.98 201.95 121.935 201.617 134.439C195.134 127.153 187.183 121.322 178.285 117.33C169.387 113.337 159.745 111.274 149.993 111.275C140.241 111.276 130.599 113.342 121.702 117.337C112.806 121.332 104.855 127.165 98.3748 134.452C98.015 121.894 100.068 106.016 104.047 98.4054ZM22.5457 120.43C29.7621 117.902 36.716 114.679 43.3096 110.807L53.267 128.052C53.6784 128.764 54.2701 129.356 54.9827 129.767C55.6953 130.178 56.5036 130.395 57.3264 130.395C58.1491 130.395 58.9574 130.178 59.67 129.767C60.3826 129.356 60.9743 128.764 61.3857 128.052L71.3426 110.807C77.1701 114.219 83.274 117.135 89.5898 119.524C88.9195 126.31 88.8239 133.14 89.3039 139.941H18.8953C17.8462 133.211 19.1346 126.325 22.5457 120.43ZM150.24 73.7076C150.407 73.7115 150.574 73.7134 150.74 73.7134C158.299 73.7134 165.29 69.7877 170.477 62.617C176.05 54.9131 179.341 44.0093 180.262 30.2093C180.272 30.057 180.275 29.9045 180.27 29.7517C180.054 21.873 176.771 14.3897 171.12 8.8956C165.469 3.40154 157.896 0.330894 150.014 0.337658H149.987C142.105 0.330894 134.533 3.40154 128.881 8.8956C123.23 14.3897 119.947 21.873 119.732 29.7517V29.9955C119.991 42.364 123.203 53.1634 129.021 61.2259C134.613 68.9791 142.347 73.5277 150.24 73.7076ZM150 9.71207C155.407 9.71108 160.604 11.8056 164.5 15.5556C168.395 19.3056 170.686 24.4193 170.89 29.8226C169.133 55.3273 158.996 64.3384 150.714 64.3384H150.454C140.332 64.1046 129.591 51.1718 129.105 29.9252C129.284 24.5032 131.564 19.3631 135.463 15.5912C139.362 11.8193 144.575 9.7111 150 9.71207ZM242.835 97.7334C242.962 97.7334 243.088 97.7381 243.216 97.7381C253.255 97.7381 265.385 88.7269 267.088 63.1765C267.098 63.0242 267.101 62.8718 267.096 62.7195C266.923 56.3632 264.274 50.3258 259.715 45.8933C255.156 41.4608 249.047 38.9835 242.688 38.989H242.661C236.302 38.9833 230.192 41.4605 225.633 45.8931C221.074 50.3256 218.425 56.3631 218.252 62.7195V62.9632C218.456 72.7226 221.006 81.2632 225.621 87.6605C230.133 93.9154 236.408 97.5869 242.835 97.7334ZM242.674 48.364C246.559 48.3646 250.292 49.8661 253.096 52.5549C255.899 55.2437 257.555 58.9118 257.718 62.7927C256.469 80.6556 249.485 88.5066 243.049 88.3607C235.746 88.1943 227.996 78.6259 227.626 62.8935C227.763 58.994 229.409 55.2999 232.216 52.5896C235.023 49.8793 238.772 48.3643 242.674 48.364ZM57.4869 97.7334C57.614 97.7334 57.7406 97.7381 57.8689 97.7381C67.9072 97.7381 80.0379 88.7269 81.74 63.1765C81.7506 63.0242 81.7523 62.8718 81.7482 62.7195C81.5749 56.3631 78.9266 50.3256 74.3674 45.8931C69.8082 41.4606 63.6986 38.9833 57.3398 38.989H57.3123C50.9536 38.9833 44.8439 41.4606 40.2847 45.8931C35.7256 50.3256 33.0772 56.3631 32.9039 62.7195V62.9632C33.1084 72.7226 35.6578 81.2632 40.2726 87.6611C44.785 93.9154 51.0598 97.5869 57.4869 97.7334ZM57.3264 48.364C61.2107 48.3646 64.9447 49.8661 67.748 52.5549C70.5513 55.2437 72.2072 58.9118 72.3697 62.7927C71.1328 80.4927 64.2439 88.3631 57.8765 88.3631H57.7008C50.3976 88.1966 42.648 78.6283 42.2777 62.8959C42.4142 58.9958 44.0595 55.301 46.8667 52.5902C49.6739 49.8794 53.4239 48.3642 57.3264 48.364Z" fill="#292929"/>
    <path fill-rule="evenodd" clip-rule="evenodd" d="M193.435 170.268C193.173 169.463 192.698 168.743 192.06 168.186C191.423 167.629 190.646 167.255 189.813 167.104L165.726 162.734L154.128 141.175C153.726 140.43 153.131 139.807 152.404 139.373C151.677 138.938 150.846 138.709 150 138.709C149.153 138.709 148.322 138.938 147.595 139.373C146.869 139.807 146.273 140.43 145.872 141.175L134.274 162.734L110.186 167.103C109.353 167.254 108.577 167.628 107.939 168.185C107.302 168.742 106.827 169.461 106.565 170.266C106.304 171.071 106.265 171.932 106.453 172.758C106.642 173.583 107.05 174.342 107.635 174.954L124.555 192.647L121.265 216.904C121.152 217.743 121.267 218.598 121.6 219.376C121.933 220.155 122.47 220.829 123.155 221.327C123.84 221.824 124.647 222.127 125.491 222.203C126.334 222.279 127.182 222.125 127.945 221.757L150 211.133L172.055 221.758C172.818 222.125 173.666 222.279 174.509 222.204C175.353 222.128 176.16 221.825 176.845 221.327C177.53 220.83 178.067 220.156 178.4 219.377C178.733 218.598 178.848 217.744 178.735 216.905L175.445 192.647L192.363 174.957C192.948 174.345 193.357 173.586 193.546 172.76C193.735 171.935 193.696 171.073 193.435 170.268ZM167.109 187.801C166.622 188.31 166.256 188.922 166.039 189.592C165.821 190.262 165.757 190.973 165.852 191.671L168.274 209.533L152.035 201.709C151.4 201.404 150.705 201.245 150 201.245C149.296 201.245 148.601 201.404 147.966 201.709L131.727 209.533L134.149 191.671C134.244 190.973 134.18 190.262 133.962 189.592C133.745 188.922 133.379 188.31 132.892 187.801L120.433 174.774L138.17 171.558C138.863 171.432 139.519 171.152 140.088 170.738C140.658 170.324 141.127 169.787 141.461 169.166L150 153.293L158.539 169.166C158.873 169.787 159.342 170.324 159.912 170.738C160.482 171.152 161.137 171.432 161.831 171.558L179.567 174.774L167.109 187.801Z" fill="#E51717"/>
</svg>
